<?xml version="1.0" encoding="UTF-8"?>
<!DOCTYPE svg PUBLIC "-//W3C//DTD SVG 1.1//EN" "http://www.w3.org/Graphics/SVG/1.1/DTD/svg11.dtd">
<svg xmlns="http://www.w3.org/2000/svg" version="1.1" width="178px" height="144px" style="shape-rendering:geometricPrecision; text-rendering:geometricPrecision; image-rendering:optimizeQuality; fill-rule:evenodd; clip-rule:evenodd" xmlns:xlink="http://www.w3.org/1999/xlink">
<g><path style="opacity:1" fill="#8897c1" d="M 46.5,-0.5 C 74.5,-0.5 102.5,-0.5 130.5,-0.5C 132.127,1.62976 133.96,3.62976 136,5.5C 136.667,21.5 136.667,37.5 136,53.5C 133.833,55.6667 131.667,57.8333 129.5,60C 123.167,60.3333 116.833,60.6667 110.5,61C 106.623,66.5847 103.123,72.4181 100,78.5C 99.5005,84.4908 99.3338,90.4908 99.5,96.5C 96.8333,96.5 94.1667,96.5 91.5,96.5C 91.5,99.5 91.5,102.5 91.5,105.5C 91.5,115.5 91.5,125.5 91.5,135.5C 89.5,135.5 87.5,135.5 85.5,135.5C 85.5,125.5 85.5,115.5 85.5,105.5C 85.5,102.5 85.5,99.5 85.5,96.5C 82.8333,96.5 80.1667,96.5 77.5,96.5C 77.6662,90.4908 77.4995,84.4908 77,78.5C 73.4145,72.9979 70.0812,67.3312 67,61.5C 60.2471,60.686 53.4137,60.186 46.5,60C 44.6667,58.1667 42.8333,56.3333 41,54.5C 40.3333,38.1667 40.3333,21.8333 41,5.5C 43.0396,3.62976 44.8729,1.62976 46.5,-0.5 Z"/></g>
<g><path style="opacity:1" fill="#616062" d="M 92.5,12.5 C 98.971,11.3446 104.471,13.0112 109,17.5C 109.497,19.8098 109.663,22.1432 109.5,24.5C 107.5,24.5 105.5,24.5 103.5,24.5C 103.618,16.3822 100.118,14.3822 93,18.5C 92.3333,25.5 92.3333,32.5 93,39.5C 96.3333,43.5 99.6667,43.5 103,39.5C 103.495,37.5273 103.662,35.5273 103.5,33.5C 105.5,33.5 107.5,33.5 109.5,33.5C 109.043,43.7827 103.709,47.9494 93.5,46C 89.5936,45.0271 87.427,42.5271 87,38.5C 86.3333,31.8333 86.3333,25.1667 87,18.5C 88.3597,15.9774 90.193,13.9774 92.5,12.5 Z"/></g>
<g><path style="opacity:1" fill="#616063" d="M 63.5,13.5 C 68.8333,13.5 74.1667,13.5 79.5,13.5C 79.5,14.8333 79.5,16.1667 79.5,17.5C 76.1667,17.5 72.8333,17.5 69.5,17.5C 69.5,20.5 69.5,23.5 69.5,26.5C 72.8333,26.5 76.1667,26.5 79.5,26.5C 79.5,27.8333 79.5,29.1667 79.5,30.5C 76.1667,30.5 72.8333,30.5 69.5,30.5C 69.5,34.1667 69.5,37.8333 69.5,41.5C 73.1667,41.5 76.8333,41.5 80.5,41.5C 80.5,42.8333 80.5,44.1667 80.5,45.5C 74.8333,45.5 69.1667,45.5 63.5,45.5C 63.5,34.8333 63.5,24.1667 63.5,13.5 Z"/></g>
<g><path style="opacity:1" fill="#676972" d="M 124.5,9.5 C 125.117,9.61071 125.617,9.94404 126,10.5C 126.167,17 126.333,23.5 126.5,30C 126.651,36.9956 126.151,43.829 125,50.5C 125.831,36.8666 125.664,23.2 124.5,9.5 Z"/></g>
<g><path style="opacity:1" fill="#6d7181" d="M 53.5,52.5 C 53.56,51.9569 53.8933,51.6236 54.5,51.5C 76.7904,52.3228 99.1237,52.8228 121.5,53C 98.7607,53.8218 76.094,53.6551 53.5,52.5 Z"/></g>
<g><path style="opacity:0.969" fill="#a06b33" d="M 85.5,105.5 C 85.5,115.5 85.5,125.5 85.5,135.5C 87.5,135.5 89.5,135.5 91.5,135.5C 91.5,125.5 91.5,115.5 91.5,105.5C 106.901,107.349 120.235,113.515 131.5,124C 145.907,125.018 159.573,128.685 172.5,135C 174.402,136.73 176.069,138.563 177.5,140.5C 177.5,141.5 177.5,142.5 177.5,143.5C 118.167,143.5 58.8333,143.5 -0.5,143.5C -0.5,142.167 -0.5,140.833 -0.5,139.5C 6.66909,133.249 15.0024,129.082 24.5,127C 34.4188,114.537 47.4188,107.537 63.5,106C 70.8499,104.586 78.1832,104.42 85.5,105.5 Z"/></g>
<g><path style="opacity:1" fill="#6a5f55" d="M 69.5,118.5 C 71.7602,119.238 71.9269,120.238 70,121.5C 69.5172,120.552 69.3505,119.552 69.5,118.5 Z"/></g>
<g><path style="opacity:1" fill="#7a634b" d="M 68.5,122.5 C 69.4379,124.923 68.9379,127.256 67,129.5C 67.1571,127.169 67.6571,124.836 68.5,122.5 Z"/></g>
</svg>
