<?xml version="1.0" encoding="UTF-8"?>
<!DOCTYPE svg PUBLIC "-//W3C//DTD SVG 1.1//EN" "http://www.w3.org/Graphics/SVG/1.1/DTD/svg11.dtd">
<svg xmlns="http://www.w3.org/2000/svg" version="1.1" width="178px" height="144px" style="shape-rendering:geometricPrecision; text-rendering:geometricPrecision; image-rendering:optimizeQuality; fill-rule:evenodd; clip-rule:evenodd" xmlns:xlink="http://www.w3.org/1999/xlink">
<g><path style="opacity:0.982" fill="#61b53c" d="M 45.5,-0.5 C 74.1667,-0.5 102.833,-0.5 131.5,-0.5C 132.793,1.29585 134.293,2.96252 136,4.5C 136.667,20.8333 136.667,37.1667 136,53.5C 134.167,55.3333 132.333,57.1667 130.5,59C 123.586,59.186 116.753,59.686 110,60.5C 106.667,66.5 103.333,72.5 100,78.5C 99.5005,84.4908 99.3338,90.4908 99.5,96.5C 96.8333,96.5 94.1667,96.5 91.5,96.5C 91.5,99.5 91.5,102.5 91.5,105.5C 90.5062,114.986 90.1729,124.652 90.5,134.5C 89.1667,134.5 87.8333,134.5 86.5,134.5C 86.8271,124.652 86.4938,114.986 85.5,105.5C 85.5,105.167 85.5,104.833 85.5,104.5C 85.5,101.833 85.5,99.1667 85.5,96.5C 82.8333,96.5 80.1667,96.5 77.5,96.5C 77.6662,90.4908 77.4995,84.4908 77,78.5C 73.6995,72.3703 70.1995,66.3703 66.5,60.5C 59.8581,59.6691 53.1915,59.1691 46.5,59C 44.6667,57.1667 42.8333,55.3333 41,53.5C 40.3333,37.1667 40.3333,20.8333 41,4.5C 42.7073,2.96252 44.2073,1.29585 45.5,-0.5 Z"/></g>
<g><path style="opacity:1" fill="#619747" d="M 123.5,7.5 C 99.7883,7.18666 76.1216,7.51999 52.5,8.5C 53.0577,7.21009 54.0577,6.37675 55.5,6C 77.5,5.33333 99.5,5.33333 121.5,6C 122.416,6.27842 123.082,6.77842 123.5,7.5 Z"/></g>
<g><path style="opacity:1" fill="#62b43c" d="M 123.5,7.5 C 124.5,7.83333 125.167,8.5 125.5,9.5C 125.798,23.2156 125.465,36.8823 124.5,50.5C 124.158,51.3382 123.492,51.6716 122.5,51.5C 99.8309,51.6666 77.1642,51.5 54.5,51C 53.6266,49.955 52.6266,49.1217 51.5,48.5C 50.3398,35.6732 50.1731,22.6732 51,9.5C 51.3826,8.94404 51.8826,8.61071 52.5,8.5C 76.1216,7.51999 99.7883,7.18666 123.5,7.5 Z"/></g>
<g><path style="opacity:1" fill="#5f605b" d="M 63.5,12.5 C 68.8437,12.334 74.1771,12.5006 79.5,13C 80.9308,13.4652 82.0975,14.2986 83,15.5C 86.5864,27.7433 82.0864,33.0767 69.5,31.5C 69.5,35.8333 69.5,40.1667 69.5,44.5C 67.5,44.5 65.5,44.5 63.5,44.5C 63.5,33.8333 63.5,23.1667 63.5,12.5 Z"/></g>
<g><path style="opacity:1" fill="#5f5d5c" d="M 90.5,12.5 C 92.1667,12.5 93.8333,12.5 95.5,12.5C 95.1818,17.0323 95.5151,21.3656 96.5,25.5C 99.8333,25.5 103.167,25.5 106.5,25.5C 106.5,21.1667 106.5,16.8333 106.5,12.5C 108.167,12.5 109.833,12.5 111.5,12.5C 111.5,23.1667 111.5,33.8333 111.5,44.5C 109.833,44.5 108.167,44.5 106.5,44.5C 106.5,39.5 106.5,34.5 106.5,29.5C 103.167,29.5 99.8333,29.5 96.5,29.5C 95.5128,34.3054 95.1795,39.3054 95.5,44.5C 93.8333,44.5 92.1667,44.5 90.5,44.5C 90.5,33.8333 90.5,23.1667 90.5,12.5 Z"/></g>
<g><path style="opacity:1" fill="#607951" d="M 90.5,12.5 C 92.2646,11.5386 94.2646,11.2053 96.5,11.5C 96.5,16.1667 96.5,20.8333 96.5,25.5C 95.5151,21.3656 95.1818,17.0323 95.5,12.5C 93.8333,12.5 92.1667,12.5 90.5,12.5 Z"/></g>
<g><path style="opacity:1" fill="#607951" d="M 106.5,12.5 C 108.265,11.5386 110.265,11.2053 112.5,11.5C 112.5,22.8333 112.5,34.1667 112.5,45.5C 110.265,45.7947 108.265,45.4614 106.5,44.5C 108.167,44.5 109.833,44.5 111.5,44.5C 111.5,33.8333 111.5,23.1667 111.5,12.5C 109.833,12.5 108.167,12.5 106.5,12.5 Z"/></g>
<g><path style="opacity:1" fill="#60804f" d="M 125.5,9.5 C 126.66,22.6603 126.827,35.9936 126,49.5C 125.617,50.056 125.117,50.3893 124.5,50.5C 125.465,36.8823 125.798,23.2156 125.5,9.5 Z"/></g>
<g><path style="opacity:1" fill="#62b33d" d="M 69.5,16.5 C 71.8568,16.3367 74.1902,16.5034 76.5,17C 77.8333,20.3333 77.8333,23.6667 76.5,27C 74.1902,27.4966 71.8568,27.6633 69.5,27.5C 69.5,23.8333 69.5,20.1667 69.5,16.5 Z"/></g>
<g><path style="opacity:1" fill="#607951" d="M 96.5,29.5 C 96.5,34.8333 96.5,40.1667 96.5,45.5C 94.2646,45.7947 92.2646,45.4614 90.5,44.5C 92.1667,44.5 93.8333,44.5 95.5,44.5C 95.1795,39.3054 95.5128,34.3054 96.5,29.5 Z"/></g>
<g><path style="opacity:1" fill="#607d50" d="M 51.5,48.5 C 52.6266,49.1217 53.6266,49.955 54.5,51C 77.1642,51.5 99.8309,51.6666 122.5,51.5C 99.6703,52.663 76.6703,52.8297 53.5,52C 52.1772,51.1841 51.5106,50.0174 51.5,48.5 Z"/></g>
<g><path style="opacity:0.96" fill="#a06b32" d="M 85.5,104.5 C 85.5,104.833 85.5,105.167 85.5,105.5C 85.5,115.5 85.5,125.5 85.5,135.5C 87.5,135.5 89.5,135.5 91.5,135.5C 91.5,125.5 91.5,115.5 91.5,105.5C 106.365,106.769 119.032,112.602 129.5,123C 141.729,124.646 153.729,127.312 165.5,131C 170.26,132.952 174.26,135.786 177.5,139.5C 177.5,140.833 177.5,142.167 177.5,143.5C 118.167,143.5 58.8333,143.5 -0.5,143.5C -0.5,142.167 -0.5,140.833 -0.5,139.5C 0.596413,137.897 1.92975,136.397 3.5,135C 10.1209,131.348 17.1209,128.682 24.5,127C 33.6407,114.591 45.9741,107.591 61.5,106C 69.4529,104.777 77.4529,104.277 85.5,104.5 Z"/></g>
<g><path style="opacity:1" fill="#7a9938" d="M 85.5,105.5 C 86.4938,114.986 86.8271,124.652 86.5,134.5C 87.8333,134.5 89.1667,134.5 90.5,134.5C 90.1729,124.652 90.5062,114.986 91.5,105.5C 91.5,115.5 91.5,125.5 91.5,135.5C 89.5,135.5 87.5,135.5 85.5,135.5C 85.5,125.5 85.5,115.5 85.5,105.5 Z"/></g>
</svg>
